HIERARCHY
ROOT Hips
{
	OFFSET	0.00	0.00	0.00
	CHANNELS 6 Xposition Yposition Zposition Zrotation Xrotation Yrotation
	JOINT LeftUpLeg
	{
		OFFSET	 0.126116	-0.014019	-0.065224
		CHANNELS 3 Zrotation Xrotation Yrotation
		JOINT LeftLeg
		{
			OFFSET	 0.000000	 0.000000	 0.569914
			CHANNELS 3 Zrotation Xrotation Yrotation
			JOINT LeftFoot
			{
				OFFSET	 0.000000	 0.000000	 0.544423
				CHANNELS 3 Zrotation Xrotation Yrotation
				JOINT LeftToeBase
				{
					OFFSET	 0.000000	 0.000000	 0.207117
					CHANNELS 3 Zrotation Xrotation Yrotation
					End Site
					{
						OFFSET	 0.000000	 0.000000	 0.207117
					}
				}
			}
		}
	}
	JOINT RightUpLeg
	{
		OFFSET	-0.124023	-0.008373	-0.065224
		CHANNELS 3 Zrotation Xrotation Yrotation
		JOINT RightLeg
		{
			OFFSET	 0.000000	 0.000000	 0.570047
			CHANNELS 3 Zrotation Xrotation Yrotation
			JOINT RightFoot
			{
				OFFSET	 0.000000	 0.000000	 0.544354
				CHANNELS 3 Zrotation Xrotation Yrotation
				JOINT RightToeBase
				{
					OFFSET	 0.000000	 0.000000	 0.207540
					CHANNELS 3 Zrotation Xrotation Yrotation
					End Site
					{
						OFFSET	 0.000000	 0.000000	 0.207540
					}
				}
			}
		}
	}
	JOINT Spine
	{
		OFFSET	 0.000184	-0.007763	 0.117403
		CHANNELS 3 Zrotation Xrotation Yrotation
		JOINT Spine1
		{
			OFFSET	 0.000000	 0.000000	 0.137269
			CHANNELS 3 Zrotation Xrotation Yrotation
			JOINT Spine2
			{
				OFFSET	 0.000000	 0.000000	 0.156879
				CHANNELS 3 Zrotation Xrotation Yrotation
				JOINT LeftShoulder
				{
					OFFSET	 0.080501	-0.002496	 0.160144
					CHANNELS 3 Zrotation Xrotation Yrotation
					JOINT LeftArm
					{
						OFFSET	 0.000000	 0.000000	 0.164363
						CHANNELS 3 Zrotation Xrotation Yrotation
						JOINT LeftForeArm
						{
							OFFSET	 0.000000	 0.000000	 0.364576
							CHANNELS 3 Zrotation Xrotation Yrotation
							JOINT LeftHand
							{
								OFFSET	 0.000000	 0.000000	 0.360812
								CHANNELS 3 Zrotation Xrotation Yrotation
								JOINT LeftHandIndex1
								{
									OFFSET	 0.000000	 0.000000	 0.086006
									CHANNELS 3 Zrotation Xrotation Yrotation
									JOINT LeftHandIndex2
									{
										OFFSET	 0.000000	 0.000000	 0.047236
										CHANNELS 3 Zrotation Xrotation Yrotation
										JOINT LeftHandIndex3
										{
											OFFSET	-0.004284	-0.000551	 0.038166
											CHANNELS 3 Zrotation Xrotation Yrotation
											End Site
											{
												OFFSET	-0.004284	-0.000551	 0.038166
											}
										}
									}
								}
							}
						}
					}
				}
				JOINT Neck
				{
					OFFSET	 0.000000	 0.000000	 0.176489
					CHANNELS 3 Zrotation Xrotation Yrotation
					JOINT Head
					{
						OFFSET	 0.000000	-0.001747	 0.077940
						CHANNELS 3 Zrotation Xrotation Yrotation
						End Site
						{
							OFFSET	 0.000000	-0.001747	 0.077940
						}
					}
				}
				JOINT RightShoulder
				{
					OFFSET	-0.080363	 0.000306	 0.159706
					CHANNELS 3 Zrotation Xrotation Yrotation
					JOINT RightArm
					{
						OFFSET	 0.000000	 0.000000	 0.164196
						CHANNELS 3 Zrotation Xrotation Yrotation
						JOINT RightForeArm
						{
							OFFSET	 0.000000	 0.000000	 0.365611
							CHANNELS 3 Zrotation Xrotation Yrotation
							JOINT RightHand
							{
								OFFSET	 0.000000	 0.000000	 0.360648
								CHANNELS 3 Zrotation Xrotation Yrotation
								JOINT RightHandIndex1
								{
									OFFSET	 0.000000	 0.000000	 0.069977
									CHANNELS 3 Zrotation Xrotation Yrotation
									JOINT RightHandIndex2
									{
										OFFSET	 0.000000	 0.000000	 0.052305
										CHANNELS 3 Zrotation Xrotation Yrotation
										JOINT RightHandIndex3
										{
											OFFSET	 0.009002	-0.000782	 0.042196
											CHANNELS 3 Zrotation Xrotation Yrotation
											End Site
											{
												OFFSET	 0.009002	-0.000782	 0.042196
											}
										}
									}
								}
							}
						}
					}
				}
			}
		}
	}
}
MOTION
Frames:    13
Frame Time: 0.03333334
-0.057834	-2.230811	 1.201293	 4.476646	-1.599133	-3.398000	-6.319296	-13.388480	-170.089000	 0.612296	-38.723980	 0.134301	 46.517790	 80.110830	-50.145130	-2.370692	 31.397150	-0.065004	 3.407548	-28.845510	-175.113400	 10.584390	-52.891450	 9.088475	 17.861390	 73.566610	-14.279830	 2.358239	 33.107770	 0.105728	-0.759148	 8.887021	 1.315416	 0.522354	 2.598600	 1.797829	-4.924041	-2.520807	-2.284553	-93.836780	 58.919870	 175.610400	 21.697750	 41.536990	-36.461080	-0.693705	-0.059388	-0.509199	-1.172021	-22.083630	-6.974899	-4.869298	 19.243510	-2.786474	-3.888049	 21.389320	 2.209375	-4.808252	 5.545583	 0.146965	-0.105812	-5.039433	 0.168879	-6.998839	 2.169836	 2.436684	 89.810870	 61.608940	-179.931500	-20.361180	 52.477080	 9.907315	-1.361682	-2.770003	 14.330430	-4.719929	-7.871264	 0.692480	 6.300011	 25.527440	-0.562069	 1.794555	 45.425360	-6.911879	 0.425619	 24.715990	 3.619597
-0.058325	-2.240009	 1.201181	 5.009760	-1.338903	-3.384360	-6.897420	-13.205590	-170.153500	 0.919758	-38.601060	 0.353780	 46.674340	 80.177870	-50.589440	-2.369752	 31.555980	-0.068589	 2.281787	-29.713970	-174.944700	 10.908160	-51.788020	 9.214891	 25.556030	 76.825830	-22.693870	 2.358774	 33.028490	 0.103884	-1.166895	 8.759815	 1.240141	 0.523637	 2.387006	 1.853903	-5.003551	-2.514005	-2.283420	-93.935070	 58.998390	 175.390900	 21.905830	 40.874510	-37.087400	-1.218288	-0.054928	-0.511745	-1.163376	-22.081940	-7.905950	-4.869062	 19.248410	-2.786530	-3.884110	 21.439770	 2.205379	-4.808270	 5.545386	 0.146975	-0.076369	-5.074562	 0.183899	-6.976547	 2.140551	 2.316004	 89.779950	 61.648190	 179.994900	-20.048190	 52.763630	 9.238688	-1.524693	-2.789747	 14.215940	-4.769914	-7.451955	 0.577216	 6.293801	 24.853920	-0.540435	 1.888163	 44.679170	-6.995489	 0.537337	 24.227630	 3.562662
-0.058897	-2.251887	 1.200894	 5.553274	-0.892292	-3.400591	-7.444068	-13.055570	-170.208300	 1.161959	-38.438550	 0.503101	 46.837190	 80.269840	-50.943180	-2.368818	 31.711390	-0.072109	 0.931439	-30.962700	-174.738400	 11.452900	-50.238170	 9.444836	 38.291420	 79.660560	-36.351120	 2.358980	 32.999240	 0.103204	-1.528065	 8.470830	 1.132140	 0.513149	 2.176825	 1.984679	-5.100444	-2.528048	-2.320488	-94.063220	 59.018090	 175.114900	 22.029170	 40.150870	-36.658510	-1.498253	-0.291755	-2.847088	-0.893374	-22.178750	-8.510773	-4.865649	 19.340740	-2.793621	-3.877178	 21.528430	 2.198336	-4.805682	 5.575861	 0.145190	-0.048113	-5.098294	 0.218193	-6.976104	 2.114380	 2.224632	 89.732600	 61.705880	 179.881700	-19.689560	 53.109460	 8.399635	-1.878491	-2.863219	 14.122940	-4.973855	-6.971410	 0.400424	 6.281693	 23.934560	-0.546253	 1.998172	 43.773320	-7.093286	 0.722197	 23.410060	 3.470178
-0.059447	-2.264565	 1.200304	 6.027267	-0.459208	-3.426899	-7.929856	-12.890880	-170.256700	 1.344661	-38.319250	 0.615091	 47.258750	 80.418430	-51.503820	-2.368004	 31.845000	-0.075146	-0.280493	-32.139090	-174.584300	 11.839070	-48.647810	 9.522808	 59.150020	 81.305930	-58.135440	 2.359056	 32.986760	 0.102920	-1.831332	 8.180433	 1.029520	 0.499097	 2.012653	 2.118426	-5.189042	-2.553332	-2.363729	-94.181740	 59.020310	 174.861600	 22.035110	 39.432510	-36.223670	-1.669084	-0.507933	-5.097452	-0.613274	-22.271530	-8.952185	-4.861876	 19.442970	-2.801563	-3.870401	 21.614930	 2.191448	-4.802778	 5.610067	 0.143190	-0.023948	-5.115911	 0.252799	-6.981318	 2.092667	 2.152919	 89.687520	 61.760540	 179.773500	-19.361040	 53.429470	 7.566651	-2.230781	-2.950853	 14.100950	-5.188138	-6.529798	 0.231541	 6.269562	 23.076200	-0.558359	 2.095070	 42.948610	-7.178997	 0.898736	 22.618320	 3.383893
-0.059703	-2.278846	 1.199461	 6.273451	-0.042452	-3.607799	-8.144067	-12.539960	-170.132600	 1.467402	-38.050290	 0.687087	 49.041390	 80.692260	-53.413850	-2.366702	 32.055620	-0.079948	-0.686532	-33.304690	-174.169700	 12.149600	-46.838910	 9.490013	 71.372960	 80.883350	-71.332790	 2.360273	 32.806730	 0.098741	-1.967488	 7.833715	 1.093054	 0.504313	 2.055037	 2.221970	-5.254770	-2.625798	-2.409284	-94.284190	 58.982110	 174.648800	 21.852070	 38.610430	-36.033360	-2.120994	-0.643429	-7.003012	-0.511591	-22.524900	-8.700847	-4.853635	 19.636360	-2.810853	-3.860084	 21.746170	 2.180964	-4.796423	 5.684836	 0.138804	-0.013233	-5.151610	 0.286252	-7.007737	 2.069806	 2.134686	 89.618230	 61.845570	 179.606600	-18.957730	 53.764250	 6.734576	-2.843484	-3.104774	 14.070500	-5.592859	-6.017165	-0.249411	 6.252665	 22.071640	-0.591535	 2.184470	 42.164380	-7.257692	 1.119659	 21.612530	 3.278800
-0.059971	-2.292725	 1.198462	 6.476403	 0.328933	-3.785131	-8.322292	-12.159190	-170.009800	 1.572377	-37.791370	 0.747464	 51.062250	 80.971660	-55.549030	-2.365477	 32.250860	-0.084402	-0.921792	-34.320850	-173.768700	 12.314380	-44.977630	 9.320543	 78.744800	 80.001760	-79.533220	 2.361432	 32.631340	 0.094689	-2.077031	 7.518125	 1.164108	 0.508328	 2.125081	 2.311407	-5.311998	-2.701565	-2.450540	-94.374830	 58.944630	 174.461600	 21.606380	 37.801600	-36.048970	-2.537454	-0.711379	-8.398581	-0.443968	-22.750590	-8.413701	-4.845846	 19.817340	-2.819338	-3.850515	 21.867560	 2.171245	-4.790444	 5.755260	 0.134665	-0.004741	-5.185115	 0.316132	-7.033152	 2.049295	 2.122576	 89.554410	 61.924420	 179.451700	-18.579550	 54.067260	 5.933224	-3.414428	-3.257540	 14.080590	-5.964067	-5.540289	-0.706326	 6.236686	 21.158880	-0.623040	 2.262097	 41.464650	-7.325706	 1.318595	 20.692710	 3.186967
-0.060336	-2.309708	 1.197068	 6.568143	 0.555999	-3.968421	-8.435726	-11.410320	-169.859200	 1.638677	-37.444910	 0.781942	 52.406870	 81.103230	-56.978080	-2.362097	 32.772060	-0.096391	-0.392007	-35.114570	-173.178000	 11.982350	-42.672410	 8.712843	 96.896860	 78.328290	-98.195730	 2.357285	 33.245190	 0.108933	-2.189980	 7.229122	 1.275277	 0.524420	 2.465098	 2.347062	-5.338074	-2.851649	-2.467043	-94.433490	 58.903870	 174.343100	 21.019610	 36.957170	-36.198420	-2.916640	-0.755879	-9.668602	-0.517855	-22.723300	-8.099708	-4.835237	 20.030590	-2.821660	-3.836503	 22.044600	 2.157005	-4.779927	 5.878831	 0.127388	 0.009717	-5.233816	 0.331689	-7.032176	 2.011229	 2.087256	 89.495860	 61.983250	 179.309100	-18.011150	 54.384700	 4.921864	-4.147507	-3.462914	 14.124060	-6.349430	-5.125887	-1.444499	 6.215515	 20.039580	-0.668158	 2.405033	 40.128660	-7.450153	 1.560900	 19.554440	 3.078805
-0.060809	-2.327996	 1.195345	 6.638865	 0.752998	-4.150598	-8.547459	-10.542230	-169.710000	 1.697990	-37.061310	 0.810851	 53.796520	 81.230480	-58.446200	-2.358206	 33.345380	-0.109696	 0.380777	-35.757170	-172.500800	 11.505990	-40.065280	 7.964898	 110.312600	 75.642700	-111.886000	 2.351939	 33.994690	 0.126529	-2.304489	 6.949217	 1.392328	 0.538723	 2.854323	 2.369219	-5.358024	-3.015483	-2.477477	-94.485520	 58.863130	 174.239100	 20.333360	 36.079040	-36.546360	-3.273439	-0.761670	-10.579900	-0.621177	-22.639850	-7.784308	-4.824251	 20.246640	-2.822837	-3.821808	 22.229240	 2.142088	-4.768710	 6.010353	 0.119616	 0.025080	-5.284558	 0.344405	-7.026468	 1.970505	 2.048307	 89.439260	 62.037640	 179.170800	-17.399150	 54.689370	 3.856054	-4.908269	-3.675299	 14.156910	-6.714973	-4.713385	-2.223032	 6.192978	 18.898890	-0.715150	 2.551195	 38.695400	-7.576262	 1.804133	 18.392490	 2.974420
-0.061677	-2.350371	 1.192978	 6.805791	 0.781480	-4.314734	-8.793337	-9.258144	-169.574800	 1.831761	-36.582610	 0.881610	 52.978030	 81.135480	-57.733040	-2.347981	 34.736730	-0.142563	 0.787015	-36.179930	-171.884300	 11.496520	-36.799590	 7.413013	 107.510000	 74.367890	-109.715800	 2.342993	 35.155410	 0.154279	-2.609182	 6.981833	 1.482993	 0.547464	 3.036469	 2.459608	-5.361338	-3.197138	-2.525916	-94.520040	 58.880510	 174.162800	 19.335100	 35.304370	-37.157050	-3.322262	-0.775160	-10.890060	-0.816122	-22.934230	-7.946669	-4.833800	 20.388950	-2.919603	-3.804475	 22.446090	 2.124483	-4.750527	 6.223109	 0.106982	 0.066727	-5.343878	 0.350801	-6.970516	 1.975847	 1.894229	 89.393910	 62.007980	 179.062300	-16.566680	 54.957280	 2.311735	-5.642357	-3.924001	 14.333630	-6.898059	-4.579914	-3.042759	 6.176239	 17.551300	-0.708670	 2.722180	 36.927240	-7.722187	 2.084171	 17.031220	 2.859597
-0.062613	-2.370437	 1.190647	 6.953550	 0.787206	-4.439274	-9.030078	-8.065157	-169.482100	 1.954923	-36.119460	 0.944611	 51.928070	 81.033390	-56.770630	-2.337400	 36.033400	-0.173985	 1.057468	-36.440320	-171.414200	 11.517740	-33.912710	 6.921845	 103.862800	 73.537720	-106.545000	 2.335017	 36.111450	 0.177594	-2.892285	 7.033333	 1.550565	 0.548713	 3.163929	 2.531656	-5.362750	-3.344842	-2.565840	-94.545730	 58.906090	 174.104100	 18.467160	 34.672290	-37.877570	-3.328800	-0.759308	-10.689860	-0.995917	-23.213180	-8.133856	-4.843785	 20.499080	-3.010427	-3.789717	 22.629640	 2.109495	-4.734318	 6.412138	 0.095697	 0.104056	-5.394167	 0.353765	-6.917437	 1.985270	 1.757700	 89.358380	 61.970180	 178.977900	-15.834170	 55.140290	 1.003703	-6.271250	-4.110986	 14.379890	-7.018313	-4.481285	-3.729314	 6.164008	 16.400980	-0.693645	 2.858764	 35.439710	-7.837384	 2.318872	 15.871540	 2.767897
-0.064316	-2.391092	 1.188099	 7.079898	 0.748017	-4.320082	-9.370687	-6.808819	-169.654000	 2.214672	-35.764600	 1.088482	 46.857030	 80.417410	-51.835010	-2.314771	 38.449710	-0.234826	 1.262509	-36.554150	-171.298800	 11.024200	-31.137670	 6.156049	 89.781570	 74.418000	-92.377550	 2.336847	 35.899170	 0.172369	-3.237366	 7.027576	 1.467283	 0.571226	 3.427614	 2.493645	-5.363342	-3.476815	-2.576626	-94.533670	 59.050940	 174.105900	 17.562640	 34.206630	-38.945530	-3.343228	-0.691422	-9.788202	-1.350302	-23.610020	-8.498893	-4.860191	 20.548280	-3.120211	-3.777586	 22.779940	 2.097176	-4.712840	 6.661961	 0.080682	 0.140871	-5.437483	 0.317137	-6.829497	 2.021259	 1.672806	 89.357190	 61.820610	 178.980700	-15.236520	 55.170430	-0.217514	-6.788690	-4.286930	 14.483820	-7.141504	-4.516995	-4.286229	 6.173731	 15.272100	-0.570423	 2.937299	 34.552700	-7.903029	 2.538761	 14.769960	 2.685835
-0.066736	-2.416695	 1.184314	 7.230812	 0.676636	-4.129965	-9.742590	-5.202796	-169.920400	 2.432450	-35.364890	 1.204064	 41.200580	 79.574620	-46.240170	-2.279147	 41.578590	-0.318790	 1.592449	-37.145220	-171.182000	 10.334490	-28.779960	 5.392174	 72.698070	 74.426180	-74.972020	 2.338844	 35.661370	 0.166565	-3.655982	 7.025425	 1.316776	 0.592461	 3.767418	 2.459987	-5.367097	-3.631509	-2.602357	-94.515720	 59.212890	 174.117100	 16.582510	 33.727430	-39.960710	-3.384115	-0.645944	-9.248672	-1.746457	-23.994340	-8.878931	-4.878208	 20.608080	-3.243267	-3.764225	 22.944730	 2.083604	-4.686342	 6.968763	 0.062113	 0.185080	-5.481228	 0.276654	-6.724778	 2.069516	 1.606226	 89.355870	 61.647820	 178.983900	-14.541600	 55.157740	-1.639056	-7.401694	-4.491981	 14.584390	-7.286273	-4.544219	-4.905680	 6.192444	 13.945710	-0.406128	 3.025019	 33.533370	-7.975813	 2.790380	 13.492280	 2.596617
-0.069687	-2.440650	 1.180092	 7.373835	 0.473514	-3.688971	-9.893743	-3.537001	-170.491400	 2.134987	-35.203670	 1.027676	 34.479570	 78.110370	-39.077590	-2.215911	 45.901550	-0.446913	 2.432191	-37.973060	-171.119800	 8.355321	-27.681340	 4.249452	 52.575100	 73.903470	-52.904020	 2.339990	 35.523330	 0.163199	-4.041068	 7.044214	 0.888323	 0.619484	 4.327615	 2.514879	-5.387161	-3.802265	-2.712435	-94.479770	 59.304510	 174.178800	 15.823860	 33.294970	-40.453150	-3.534290	-0.666813	-9.912654	-1.979630	-23.915120	-8.922338	-4.887113	 20.670370	-3.315027	-3.758164	 23.019200	 2.077459	-4.657005	 7.306979	 0.041460	 0.228523	-5.478036	 0.256158	-6.627344	 2.148427	 1.732959	 89.354610	 61.516390	 178.985600	-14.052970	 55.095680	-2.795469	-7.862635	-4.703320	 14.824790	-7.510441	-4.587936	-5.237048	 6.236794	 12.808770	-0.149305	 3.087421	 32.789470	-8.027223	 2.984785	 12.493050	 2.531190
